<?xml version="1.0" standalone="no"?>
<!DOCTYPE svg PUBLIC "-//W3C//DTD SVG 20010904//EN"
 "http://www.w3.org/TR/2001/REC-SVG-20010904/DTD/svg10.dtd">
<svg version="1.0" xmlns="http://www.w3.org/2000/svg"
 width="990.000000pt" height="990.000000pt" viewBox="0 0 990.000000 990.000000"
 preserveAspectRatio="xMidYMid meet">
<metadata>
Created by potrace 1.11, written by Peter Selinger 2001-2013
</metadata>
<g transform="translate(0.000000,990.000000) scale(0.100000,-0.100000)"
fill="#000000" stroke="none">
<path d="M1088 9895 c-1 -1 -104 -6 -228 -9 -356 -11 -421 -20 -516 -77 -66
-40 -180 -157 -234 -240 -81 -126 -87 -200 -97 -1399 -9 -1073 -9 -3633 0
-3770 4 -63 10 -131 13 -150 25 -169 146 -379 264 -461 55 -38 177 -85 247
-94 21 -3 52 -7 68 -10 76 -11 204 -16 485 -20 168 -1 337 -8 375 -15 102 -16
163 -54 197 -121 44 -87 50 -164 53 -674 2 -258 3 -472 4 -474 1 -4 29 21 196
175 55 50 125 113 154 140 30 27 62 56 71 64 13 12 183 167 236 215 6 6 53 49
105 96 52 47 114 104 138 125 61 54 87 79 157 143 33 31 100 92 149 136 92 83
108 98 167 154 l36 33 324 3 c177 2 602 6 943 10 1439 13 1575 20 1693 76 64
32 204 173 232 234 37 83 64 235 75 425 22 360 24 617 25 2926 l1 2031 -62
109 c-67 119 -114 180 -198 262 -115 112 -153 123 -511 149 -71 5 -4556 13
-4562 8z"/>
<path d="M8119 8833 c-8 -1 -133 -4 -279 -7 -146 -2 -285 -7 -309 -11 -80 -12
-121 -42 -159 -117 -33 -67 -34 -96 -7 -155 62 -136 52 -134 1255 -169 124 -4
274 -7 335 -8 l109 -1 65 -60 c243 -226 280 -278 307 -435 3 -14 7 -32 9 -40
2 -8 7 -49 10 -90 4 -41 8 -91 10 -110 29 -282 29 -4526 0 -4815 -2 -22 -7
-69 -10 -105 -27 -289 -70 -376 -270 -547 -122 -105 -161 -112 -755 -138 -178
-8 -322 -16 -355 -21 -16 -2 -55 -6 -85 -10 -80 -9 -151 -35 -171 -64 -12 -17
-21 -52 -25 -105 -3 -44 -8 -91 -10 -105 -2 -14 -6 -167 -9 -340 -7 -438 -16
-624 -30 -638 -5 -5 -61 37 -125 94 -19 17 -91 80 -160 140 -69 60 -137 120
-151 134 -14 14 -42 39 -61 55 -19 17 -75 67 -124 112 -49 45 -99 90 -110 100
-12 10 -59 52 -104 93 -45 41 -92 84 -104 95 -19 17 -157 143 -246 225 -42 38
-188 171 -226 205 l-34 31 -1078 2 c-1630 3 -1671 5 -1857 95 -138 67 -154 72
-237 72 -88 0 -118 -16 -151 -79 -30 -56 -28 -157 2 -215 60 -115 269 -251
436 -285 151 -31 341 -35 1778 -36 l968 -1 42 -37 c23 -20 67 -60 97 -88 30
-28 80 -73 110 -100 30 -27 80 -72 110 -100 51 -49 125 -115 174 -157 12 -10
46 -42 76 -70 30 -29 100 -92 155 -142 55 -49 102 -93 105 -96 3 -3 55 -50
115 -104 61 -54 144 -128 185 -165 343 -306 615 -520 664 -520 30 0 82 40 105
80 19 34 39 99 47 150 2 14 6 39 9 55 18 112 24 310 25 838 l1 457 237 0 c434
0 571 13 736 68 154 52 305 162 406 296 25 32 50 64 55 70 23 25 105 152 105
162 0 6 6 17 14 24 20 16 78 174 92 250 24 134 30 178 40 310 3 41 7 98 9 125
15 173 20 798 20 2350 0 2206 -6 2425 -71 2745 -33 160 -84 259 -219 425 -231
284 -370 371 -640 401 -27 3 -66 7 -85 10 -46 6 -730 22 -761 17z"/>
</g>
</svg>
